<svg xmlns="http://www.w3.org/2000/svg" viewBox="0 0 24 24" fill="none" stroke="currentColor" stroke-width="2" stroke-linecap="round" stroke-linejoin="round">
  <path d="M22.54 6.42a2.78 2.78 0 0 0-1.94-2C18.88 4 12 4 12 4s-6.88 0-8.6.46a2.78 2.78 0 0 0-1.94 2A29 29 0 0 0 1 11.75a29 29 0 0 0 .46 5.33A2.78 2.78 0 0 0 3.4 19c1.72.46 8.6.46 8.6.46s6.88 0 8.6-.46a2.78 2.78 0 0 0 1.94-2 29 29 0 0 0 .46-5.25 29 29 0 0 0-.46-5.33z" fill="#EF4444" stroke="#EF4444"></path>
  <path d="M12 15V8l6 3.5-6 3.5z" fill="white" stroke="white"></path>
  <path d="M12 15l-3-3m3 3l3-3m-3 3V8" stroke="#1D4ED8" stroke-width="2.5" fill="none"></path>
</svg>
